<?xml version="1.0" standalone="no"?>
<!DOCTYPE svg PUBLIC "-//W3C//DTD SVG 20010904//EN"
 "http://www.w3.org/TR/2001/REC-SVG-20010904/DTD/svg10.dtd">
<svg version="1.0" xmlns="http://www.w3.org/2000/svg"
 width="716.000000pt" height="716.000000pt" viewBox="0 0 716.000000 716.000000"
 preserveAspectRatio="xMidYMid meet">
<metadata>
Created by potrace 1.11, written by Peter Selinger 2001-2013
</metadata>
<g transform="translate(0.000000,716.000000) scale(0.100000,-0.100000)"
fill="#000000" stroke="none">
<path d="M4829 5823 c-13 -16 -12 -17 4 -4 9 7 17 15 17 17 0 8 -8 3 -21 -13z"/>
<path d="M5140 5790 c-9 -6 -10 -10 -3 -10 6 0 15 5 18 10 8 12 4 12 -15 0z"/>
<path d="M5539 5780 c0 -8 -2 -23 -4 -32 -2 -10 0 -18 5 -18 12 0 19 36 9 51
-7 12 -9 11 -10 -1z"/>
<path d="M4657 5773 c-4 -3 -7 -11 -7 -17 0 -6 5 -5 12 2 6 6 9 14 7 17 -3 3
-9 2 -12 -2z"/>
<path d="M4527 5743 c-4 -3 -7 -11 -7 -17 0 -6 5 -5 12 2 6 6 9 14 7 17 -3 3
-9 2 -12 -2z"/>
<path d="M4950 5739 c0 -5 5 -7 10 -4 6 3 10 8 10 11 0 2 -4 4 -10 4 -5 0 -10
-5 -10 -11z"/>
<path d="M4934 5701 c0 -11 4 -17 8 -15 4 3 8 12 8 20 0 8 -4 14 -8 14 -4 0
-8 -9 -8 -19z"/>
<path d="M5416 5711 c-3 -5 1 -11 9 -14 9 -4 12 -1 8 9 -6 16 -10 17 -17 5z"/>
<path d="M5536 5703 c-6 -14 -5 -15 5 -6 7 7 10 15 7 18 -3 3 -9 -2 -12 -12z"/>
<path d="M5631 5704 c1 -10 -2 -29 -6 -41 -5 -15 -3 -23 4 -23 6 0 10 3 9 8
-1 4 2 18 6 31 5 14 4 27 -2 33 -8 8 -11 5 -11 -8z"/>
<path d="M4750 5685 c-7 -9 -10 -18 -7 -21 10 -11 37 5 37 21 0 19 -14 19 -30
0z m20 -5 c0 -5 -5 -10 -11 -10 -5 0 -7 5 -4 10 3 6 8 10 11 10 2 0 4 -4 4
-10z"/>
<path d="M4530 5675 c0 -8 2 -15 4 -15 2 0 6 7 10 15 3 8 1 15 -4 15 -6 0 -10
-7 -10 -15z"/>
<path d="M4596 5678 c-6 -19 -4 -49 3 -43 6 7 10 55 4 55 -2 0 -5 -6 -7 -12z"/>
<path d="M4660 5660 c-6 -11 -9 -20 -8 -20 2 0 11 9 21 20 9 11 13 20 7 20 -5
0 -14 -9 -20 -20z"/>
<path d="M4840 5670 c0 -5 5 -10 10 -10 6 0 10 5 10 10 0 6 -4 10 -10 10 -5 0
-10 -4 -10 -10z"/>
<path d="M5525 5670 c3 -5 11 -10 16 -10 6 0 7 5 4 10 -3 6 -11 10 -16 10 -6
0 -7 -4 -4 -10z"/>
<path d="M5080 5654 c0 -8 5 -12 10 -9 6 4 8 11 5 16 -9 14 -15 11 -15 -7z"/>
<path d="M5712 5640 c0 -41 -6 -71 -21 -99 -7 -13 -8 -22 -1 -26 18 -11 28 4
26 38 -1 17 1 39 6 48 4 9 3 29 -2 45 l-9 29 1 -35z"/>
<path d="M4913 5646 c-10 -11 -9 -15 1 -19 16 -7 26 1 26 20 0 17 -12 16 -27
-1z"/>
<path d="M4993 5619 c2 -22 13 -25 20 -5 3 8 0 17 -8 20 -9 3 -13 -2 -12 -15z"/>
<path d="M5273 5633 c-17 -6 -17 -20 0 -20 8 0 14 6 14 14 0 7 -1 13 -1 12 -1
0 -7 -3 -13 -6z"/>
<path d="M5388 5633 c7 -3 16 -2 19 1 4 3 -2 6 -13 5 -11 0 -14 -3 -6 -6z"/>
<path d="M5513 5607 c-9 -19 -8 -24 3 -24 8 0 14 10 14 24 0 13 -2 23 -3 23
-2 0 -9 -10 -14 -23z"/>
<path d="M5620 5615 c-7 -9 -8 -15 -2 -15 5 0 12 7 16 15 3 8 4 15 2 15 -2 0
-9 -7 -16 -15z"/>
<path d="M4641 5598 c1 -13 -2 -32 -6 -43 -5 -16 -3 -15 14 5 11 14 16 27 10
28 -5 2 -7 8 -4 12 3 5 1 11 -5 15 -6 3 -9 -4 -9 -17z"/>
<path d="M4742 5613 c-6 -2 -10 -9 -6 -14 3 -5 1 -9 -5 -9 -11 0 -8 -47 4 -58
5 -4 5 1 2 10 -3 10 -2 20 2 23 5 2 11 16 13 30 3 14 5 25 4 24 0 0 -7 -3 -14
-6z"/>
<path d="M5226 5609 c2 -4 -2 -10 -8 -12 -8 -4 -7 -6 3 -6 9 -1 19 5 22 12 3
8 -1 14 -9 14 -7 0 -11 -4 -8 -8z"/>
<path d="M5390 5609 c0 -5 5 -7 10 -4 6 3 10 8 10 11 0 2 -4 4 -10 4 -5 0 -10
-5 -10 -11z"/>
<path d="M4570 5600 c0 -5 5 -10 10 -10 6 0 10 5 10 10 0 6 -4 10 -10 10 -5 0
-10 -4 -10 -10z"/>
<path d="M4800 5589 c0 -5 5 -7 10 -4 6 3 10 8 10 11 0 2 -4 4 -10 4 -5 0 -10
-5 -10 -11z"/>
<path d="M5067 5586 c-4 -10 -1 -13 9 -9 7 3 14 9 14 14 0 14 -17 10 -23 -5z"/>
<path d="M5382 5554 c-12 -14 -19 -31 -15 -37 4 -6 0 -8 -10 -4 -10 3 -17 2
-17 -3 0 -14 49 -8 54 7 3 7 1 13 -5 13 -6 0 -3 7 5 16 14 13 22 34 14 34 -2
0 -13 -12 -26 -26z"/>
<path d="M4563 5535 c-6 -19 -7 -35 -3 -35 9 0 25 59 18 66 -3 2 -9 -12 -15
-31z"/>
<path d="M5153 5550 c1 -11 5 -20 9 -20 4 0 8 9 8 20 0 11 -4 20 -9 20 -6 0
-9 -9 -8 -20z"/>
<path d="M5255 5560 c3 -5 8 -10 11 -10 2 0 4 5 4 10 0 6 -5 10 -11 10 -5 0
-7 -4 -4 -10z"/>
<path d="M4451 5544 c0 -11 3 -14 6 -6 3 7 2 16 -1 19 -3 4 -6 -2 -5 -13z"/>
<path d="M4980 5546 c0 -9 5 -16 10 -16 6 0 10 4 10 9 0 6 -4 13 -10 16 -5 3
-10 -1 -10 -9z"/>
<path d="M5060 5544 c0 -9 5 -14 12 -12 18 6 21 28 4 28 -9 0 -16 -7 -16 -16z"/>
<path d="M5510 5546 c0 -8 -5 -16 -12 -18 -8 -3 -7 -6 3 -10 10 -4 15 1 17 18
1 13 0 24 -3 24 -3 0 -5 -6 -5 -14z"/>
<path d="M4798 5536 c-10 -7 -18 -24 -17 -37 l1 -24 6 23 c4 13 10 23 15 23
22 -2 27 0 27 14 0 18 -9 19 -32 1z"/>
<path d="M4880 5535 c-10 -13 -9 -15 9 -15 12 0 21 6 21 15 0 8 -4 15 -9 15
-5 0 -14 -7 -21 -15z"/>
<path d="M5600 5530 c0 -5 5 -10 10 -10 6 0 10 5 10 10 0 6 -4 10 -10 10 -5 0
-10 -4 -10 -10z"/>
<path d="M5790 5530 c0 -5 5 -10 11 -10 5 0 7 5 4 10 -3 6 -8 10 -11 10 -2 0
-4 -4 -4 -10z"/>
<path d="M4501 5514 c0 -11 3 -14 6 -6 3 7 2 16 -1 19 -3 4 -6 -2 -5 -13z"/>
<path d="M4622 5489 c-8 -30 -7 -39 1 -36 7 3 11 10 9 16 -1 7 2 20 8 31 6 11
6 21 1 24 -5 3 -13 -12 -19 -35z"/>
<path d="M5220 5515 c0 -8 5 -15 10 -15 6 0 10 7 10 15 0 8 -4 15 -10 15 -5 0
-10 -7 -10 -15z"/>
<path d="M4712 5511 c-8 -4 -12 -14 -11 -22 1 -8 -3 -27 -9 -42 -7 -16 -12
-34 -11 -40 0 -7 5 0 11 16 5 15 13 27 17 27 5 0 7 10 7 23 -1 12 2 28 7 35
11 14 7 15 -11 3z"/>
<path d="M5771 5508 c-1 -23 15 -32 23 -12 3 8 2 13 -3 9 -5 -3 -12 1 -14 7
-4 8 -6 7 -6 -4z"/>
<path d="M4877 5498 c-10 -7 -19 -22 -22 -33 -3 -11 -11 -46 -19 -77 -8 -31
-13 -58 -11 -60 2 -2 -4 -10 -13 -18 -14 -13 -15 -12 -9 3 3 9 2 17 -3 17 -6
0 -10 -4 -10 -10 0 -5 -9 -10 -20 -10 -12 0 -20 7 -20 17 0 15 -1 15 -18 0
-23 -21 -33 -22 -26 -2 4 10 0 15 -11 15 -9 0 -14 4 -10 9 3 5 1 12 -4 15 -5
4 -12 -3 -16 -14 -3 -11 -10 -20 -15 -20 -5 0 -7 7 -4 15 4 10 0 15 -15 15
-21 0 -25 19 -6 32 6 5 6 8 -2 8 -6 0 -9 10 -7 23 l5 22 -10 -23 c-6 -12 -11
-38 -13 -57 -2 -40 -25 -55 -34 -21 -6 27 -47 29 -52 3 -2 -9 -9 -17 -17 -17
-7 0 -15 -10 -19 -22 l-6 -23 -21 25 c-20 24 -20 24 -16 3 7 -30 -18 -37 -37
-10 l-17 22 6 -22 c8 -29 -4 -50 -17 -32 -7 10 -8 9 -4 -5 4 -11 1 -23 -6 -28
-10 -5 -8 -8 5 -8 10 0 15 -5 12 -11 -4 -6 -13 -8 -20 -5 -16 6 -28 -35 -18
-60 5 -14 2 -16 -16 -11 -19 5 -21 2 -14 -16 4 -12 8 -37 8 -55 0 -18 5 -36
11 -40 10 -7 54 -95 54 -109 0 -5 9 -19 20 -33 l20 -25 0 33 c0 30 1 31 22 20
30 -17 47 -39 41 -54 -7 -18 73 -56 85 -41 23 27 52 123 46 152 -5 30 -4 31
34 33 37 3 41 0 72 -51 23 -39 43 -58 73 -71 61 -27 120 -32 136 -12 7 9 20
16 28 16 8 0 30 18 50 39 29 32 44 41 85 46 27 4 52 13 55 21 3 9 10 10 21 5
10 -5 30 -15 46 -22 40 -19 104 -88 111 -120 4 -15 15 -29 26 -32 36 -10 21
-135 -22 -183 -11 -11 -19 -25 -19 -32 0 -6 -17 -24 -37 -39 -21 -15 -50 -40
-65 -55 -15 -16 -32 -28 -37 -28 -5 0 -17 -10 -26 -22 -13 -20 -17 -21 -25 -8
-9 13 -12 13 -23 -2 -8 -10 -18 -13 -26 -8 -11 6 -11 9 0 14 8 3 1 4 -14 1
-19 -4 -26 -2 -22 5 3 5 1 10 -4 10 -6 0 -11 9 -11 19 0 11 -15 32 -32 47 -27
22 -34 24 -36 11 -3 -13 -8 -14 -27 -7 -14 5 -27 5 -30 1 -7 -13 -43 -2 -49
16 -4 10 -13 12 -28 7 -21 -6 -22 -6 -8 12 8 10 17 21 20 24 3 3 15 24 27 48
l22 43 -21 19 c-16 15 -24 16 -39 7 -10 -6 -15 -15 -12 -20 3 -4 7 -21 10 -38
3 -24 1 -29 -16 -29 -11 0 -23 5 -26 10 -10 16 -57 11 -105 -12 -56 -26 -73
-30 -81 -16 -4 7 -9 7 -13 -1 -4 -7 6 -18 24 -29 53 -29 65 -40 56 -49 -5 -4
-11 -2 -13 5 -8 21 -29 13 -42 -15 -8 -18 -9 -29 -1 -37 18 -18 12 -45 -10
-39 -26 7 -26 -18 -1 -73 24 -53 38 -61 35 -22 l-2 30 39 -37 c27 -28 36 -42
30 -53 -12 -22 21 -54 60 -58 18 -2 34 -6 37 -8 2 -3 21 1 41 9 33 12 91 25
133 30 27 3 16 -39 -10 -43 -12 -2 -22 -7 -22 -11 0 -10 -58 -36 -80 -36 -8 0
-21 -4 -28 -9 -7 -4 -19 -3 -27 4 -11 9 -18 7 -35 -10 -12 -12 -28 -19 -38
-16 -15 5 -17 -2 -15 -52 1 -31 2 -61 2 -65 1 -4 10 -3 20 3 24 13 31 13 31 0
0 -5 -11 -12 -24 -16 -13 -3 -34 -16 -46 -29 -27 -29 -20 -75 16 -104 21 -16
23 -23 14 -46 -18 -46 -12 -63 31 -88 50 -30 43 -33 -94 -43 -87 -5 -110 -10
-128 -27 l-22 -21 5 -780 c3 -430 2 -815 -3 -856 -4 -41 -11 -149 -15 -239 -6
-140 -5 -163 7 -156 11 7 12 6 3 -6 -6 -8 -15 -59 -18 -114 -4 -54 -9 -102
-11 -105 -2 -4 -9 -74 -14 -156 -6 -82 -14 -179 -17 -216 l-6 -67 -41 22 c-89
47 -187 15 -267 -85 -102 -128 -151 -305 -165 -588 -3 -69 -8 -169 -11 -222
l-6 -98 101 0 101 0 0 33 c0 118 72 499 100 530 6 7 32 -37 44 -76 3 -9 14
-20 23 -24 10 -4 21 -11 25 -17 23 -34 -9 -256 -53 -363 -16 -39 -29 -74 -29
-77 0 -3 533 -6 1184 -6 l1185 0 -30 111 c-47 174 -96 293 -145 352 -30 36
-30 45 2 57 20 8 25 15 21 32 -8 30 12 235 28 281 7 21 9 40 4 43 -16 9 -10
69 15 140 49 146 92 375 147 794 26 203 32 287 40 615 10 372 6 620 -11 700
-4 22 -13 66 -20 98 -6 32 -47 133 -94 230 -46 95 -89 188 -96 207 -15 39 -73
137 -128 218 -41 60 -116 126 -136 119 -9 -4 -12 4 -11 24 1 16 -1 29 -5 29
-4 0 -5 19 -2 43 7 59 6 132 -3 202 -6 53 -4 67 19 115 18 38 26 72 26 110 0
61 -13 88 -73 143 -20 20 -37 42 -37 50 0 8 -6 17 -12 20 -19 6 -58 -10 -58
-25 0 -9 -3 -9 -12 0 -8 8 -8 15 3 28 12 16 12 17 -2 12 -12 -5 -16 0 -16 18
0 31 -9 40 -26 26 -10 -9 -19 -8 -35 4 -18 13 -25 13 -37 2 -34 -31 -45 -38
-57 -38 -7 0 3 13 22 30 20 17 27 27 16 23 -16 -5 -18 -2 -14 25 2 17 1 29 -3
26 -14 -9 -21 17 -8 32 11 14 8 15 -25 9 -37 -7 -37 -7 -24 14 11 18 11 23 -2
31 -11 8 -22 2 -45 -23 -34 -38 -73 -69 -61 -49 5 8 1 12 -10 12 -10 0 -15 -2
-12 -5 3 -3 -6 -19 -20 -35 -27 -31 -46 -33 -21 -3 23 27 43 93 32 104 -6 6
-10 5 -11 -3 -2 -29 -9 -46 -35 -91 -15 -26 -32 -47 -37 -47 -12 0 -12 3 0 34
13 35 -2 33 -23 -4 -25 -41 -41 -39 -34 5 3 19 2 35 -4 35 -5 0 -9 -5 -9 -12
0 -6 -3 -9 -6 -5 -4 3 -13 0 -21 -8 -22 -23 -39 -18 -18 5 17 19 12 26 -17 21
-5 0 -8 4 -8 9 0 6 -7 10 -15 10 -14 0 -14 4 0 31 9 17 14 33 11 36 -3 3 -10
-6 -17 -20 -7 -15 -18 -24 -28 -22 -9 2 -18 4 -21 4 -3 1 2 6 10 12 11 8 12
12 2 16 -6 2 -9 9 -6 15 4 6 10 26 14 45 l8 35 -20 -22 c-11 -11 -17 -27 -15
-35 6 -15 -19 -29 -35 -19 -6 4 -5 10 3 15 12 7 12 9 0 9 -9 0 -12 8 -9 25 3
14 1 28 -5 32 -5 3 -8 2 -5 -3 3 -5 -9 -17 -28 -26 -30 -15 -34 -16 -34 -2 0
8 5 24 10 34 7 13 7 21 0 25 -5 3 -10 1 -10 -4 0 -6 -9 -11 -19 -11 -11 0 -21
-3 -24 -7 -2 -5 -2 -3 -1 4 2 6 -2 13 -7 15 -7 2 -7 13 0 31 12 30 7 34 -16
12 -24 -25 -38 -12 -36 34 1 30 -2 41 -13 41 -8 0 -14 -5 -14 -11 0 -5 -4 -7
-10 -4 -5 3 -7 0 -4 -8 7 -20 -12 -30 -33 -18 -10 6 -12 11 -5 11 6 0 12 6 12
14 0 7 7 26 14 42 8 15 13 31 10 36 -9 14 -34 9 -34 -7 0 -8 5 -15 11 -15 20
0 -2 -19 -30 -25 -23 -5 -28 -10 -24 -28 5 -21 4 -21 -12 -6 -13 13 -15 21 -6
37 6 11 11 28 11 36 0 25 -26 19 -38 -8 -6 -14 -20 -29 -30 -35 -17 -9 -20 -7
-24 19 -2 16 -1 27 3 25 4 -3 10 2 13 11 8 21 8 24 -5 24 -14 0 -39 -25 -39
-39 0 -6 -7 -11 -15 -11 -10 0 -15 10 -15 29 0 16 -8 35 -17 42 -10 8 -14 9
-10 2 10 -17 -13 -28 -24 -12 -7 12 -9 11 -10 -1 -1 -8 -1 -21 0 -29 2 -7 -2
-10 -9 -6 -7 4 -10 18 -7 31 2 14 0 27 -5 30 -5 3 -1 12 8 18 12 9 14 15 6 20
-15 9 -16 26 -1 26 5 0 7 -4 4 -10 -3 -5 -1 -10 4 -10 15 0 14 27 -1 32 -8 3
-4 9 10 17 24 13 30 41 10 41 -9 0 -9 3 -2 8 10 6 27 42 21 42 -2 0 -11 -6
-20 -12z m-54 -298 c27 0 11 -18 -31 -35 -32 -14 -37 -14 -51 0 -13 13 -13 16
4 30 11 8 29 13 40 10 11 -3 28 -5 38 -5z m-305 -46 c12 -8 22 -12 22 -7 0 4
5 1 10 -7 9 -13 11 -13 20 0 9 13 10 13 11 0 1 -8 1 -19 0 -24 -1 -5 7 -6 17
-4 11 3 26 2 33 -3 11 -6 10 -12 -5 -28 -10 -11 -24 -17 -32 -14 -8 3 -14 0
-14 -6 0 -7 -17 0 -37 14 -30 20 -50 25 -95 25 -64 0 -70 8 -33 45 28 29 70
32 103 9z m392 -164 c9 -17 8 -20 -9 -20 -19 0 -35 23 -24 34 11 11 22 6 33
-14z m-492 -27 c2 -29 0 -29 -17 5 -9 17 -9 22 1 22 8 0 15 -12 16 -27z m106
-29 c5 -12 2 -15 -10 -10 -8 3 -21 6 -27 6 -7 0 -6 4 3 10 21 14 27 12 34 -6z
m1399 -209 c-3 -9 -8 -14 -10 -11 -3 3 -2 9 2 15 9 16 15 13 8 -4z m127 -24
c0 -6 -4 -13 -10 -16 -5 -3 -10 1 -10 9 0 9 5 16 10 16 6 0 10 -4 10 -9z
m-1133 -325 c0 -8 -6 -12 -12 -9 -7 2 -15 -3 -18 -11 -7 -19 -28 -22 -24 -3 2
11 34 36 48 37 3 0 6 -6 6 -14z m1275 -347 c16 -8 18 -13 8 -19 -8 -5 -19 -2
-27 6 -8 8 -19 12 -24 9 -5 -4 -9 -1 -9 4 0 14 26 14 52 0z m-147 -97 c-3 -3
-11 0 -18 7 -9 10 -8 11 6 5 10 -3 15 -9 12 -12z m151 -12 c13 0 24 -5 24 -10
0 -6 -17 -10 -38 -9 -25 2 -39 8 -39 16 0 8 7 11 14 8 8 -3 26 -5 39 -5z m125
-31 c5 -8 8 -21 8 -29 0 -8 -5 -4 -10 9 -7 17 -13 21 -20 14 -14 -14 -49 -4
-43 12 7 17 53 12 65 -6z m79 -94 c11 -13 10 -14 -4 -9 -9 3 -16 10 -16 15 0
13 6 11 20 -6z m186 -382 c20 -27 16 -35 -6 -13 -11 11 -20 22 -20 25 0 11 13
4 26 -12z m-1896 -643 c0 -5 -5 -10 -11 -10 -5 0 -7 5 -4 10 3 6 8 10 11 10 2
0 4 -4 4 -10z m-29 -77 c-12 -20 -14 -14 -5 12 4 9 9 14 11 11 3 -2 0 -13 -6
-23z m-44 -255 c-3 -7 -5 -2 -5 12 0 14 2 19 5 13 2 -7 2 -19 0 -25z m-7 -62
c0 -3 -4 -8 -10 -11 -5 -3 -10 -1 -10 4 0 6 5 11 10 11 6 0 10 -2 10 -4z m-19
-67 c-6 -24 -9 -28 -10 -12 -1 24 9 56 16 50 2 -3 0 -20 -6 -38z m-19 -114
c-4 -26 -22 -35 -22 -12 0 10 18 37 26 37 1 0 -1 -11 -4 -25z m-12 -120 c0
-26 -3 -33 -15 -29 -17 7 -20 24 -4 24 6 0 8 9 4 20 -4 11 -2 20 4 20 6 0 11
-16 11 -35z m-10 -80 c0 -8 -4 -15 -10 -15 -5 0 -7 7 -4 15 4 8 8 15 10 15 2
0 4 -7 4 -15z m-13 -57 c-3 -7 -5 -2 -5 12 0 14 2 19 5 13 2 -7 2 -19 0 -25z
m-7 -91 c-4 -38 -11 -71 -14 -74 -6 -7 3 112 10 136 10 32 12 1 4 -62z m-167
-1039 c-3 -15 -12 -29 -20 -33 -24 -9 -24 -2 -2 34 23 38 29 38 22 -1z"/>
<path d="M5046 5490 c-13 -13 -17 -27 -12 -45 4 -17 3 -24 -6 -23 -7 2 -13 -4
-13 -12 0 -8 -4 -18 -10 -22 -6 -5 -4 -12 5 -18 22 -14 38 12 34 55 -1 19 1
35 4 35 4 0 12 11 19 25 13 29 5 31 -21 5z"/>
<path d="M4950 5494 c0 -17 17 -36 24 -26 3 5 -1 15 -9 22 -8 7 -15 9 -15 4z"/>
<path d="M5680 5443 c0 -31 2 -54 4 -52 10 10 15 109 6 109 -6 0 -10 -25 -10
-57z"/>
<path d="M4440 5471 c0 -25 6 -27 13 -6 4 8 2 17 -3 20 -6 4 -10 -3 -10 -14z"/>
<path d="M4551 5460 c0 -33 1 -34 10 -11 6 16 6 28 -1 35 -7 7 -10 -1 -9 -24z"/>
<path d="M5110 5468 c0 -10 6 -18 14 -18 7 0 16 8 18 18 4 12 -1 18 -13 18
-12 0 -19 -7 -19 -18z"/>
<path d="M5285 5480 c3 -5 1 -10 -5 -10 -6 0 -8 -10 -4 -26 4 -15 3 -25 -2
-21 -5 3 -10 -9 -11 -26 -2 -31 -1 -31 15 10 9 23 20 45 25 49 13 13 8 34 -9
34 -8 0 -12 -4 -9 -10z"/>
<path d="M5202 5472 c-7 -5 -14 -22 -15 -38 -1 -16 -8 -34 -16 -40 -8 -6 -11
-18 -8 -28 4 -9 2 -16 -3 -16 -6 0 -9 -13 -8 -29 1 -16 6 -27 11 -24 5 3 7 14
4 24 -3 10 -1 19 3 21 10 4 60 138 51 138 -3 0 -12 -4 -19 -8z"/>
<path d="M5466 5465 c4 -8 10 -15 15 -15 5 0 9 7 9 15 0 8 -7 15 -15 15 -9 0
-12 -6 -9 -15z"/>
<path d="M5586 5455 c4 -8 10 -15 15 -15 4 0 6 7 3 15 -4 8 -10 15 -15 15 -4
0 -6 -7 -3 -15z"/>
<path d="M5352 5447 c-10 -12 -10 -16 0 -20 8 -4 7 -6 -4 -6 -17 -1 -20 -5
-22 -33 -1 -7 -7 -19 -14 -26 -12 -13 -8 -32 7 -32 10 0 54 107 49 121 -2 7
-8 6 -16 -4z"/>
<path d="M5765 5450 c-11 -5 -14 -9 -8 -9 9 -1 10 -8 3 -27 -13 -32 -12 -37 0
-29 6 3 10 15 10 27 0 15 4 18 16 14 13 -5 14 -4 6 7 -7 8 -9 17 -5 20 8 9 3
8 -22 -3z"/>
<path d="M4930 5440 c0 -5 5 -12 10 -15 6 -4 8 -11 5 -16 -4 -5 -1 -9 4 -9 17
0 13 37 -4 44 -8 3 -15 1 -15 -4z"/>
<path d="M4484 5425 c-4 -8 -4 -24 -1 -35 3 -11 1 -20 -4 -20 -5 0 -9 -7 -9
-15 0 -18 20 -20 21 -2 0 6 2 29 5 50 5 38 -2 49 -12 22z"/>
<path d="M5110 5430 c11 -7 11 -10 2 -10 -7 0 -11 -4 -8 -9 3 -5 -1 -14 -9
-21 -16 -14 -20 -40 -6 -40 14 0 28 23 34 58 5 26 3 32 -11 32 -15 0 -15 -2
-2 -10z"/>
<path d="M5464 5425 c8 -8 17 -15 19 -15 3 0 7 7 11 15 4 11 -2 15 -20 15 -23
0 -24 -2 -10 -15z"/>
<path d="M4768 5423 c7 -3 16 -2 19 1 4 3 -2 6 -13 5 -11 0 -14 -3 -6 -6z"/>
<path d="M4537 5400 c-3 -13 0 -20 9 -20 15 0 19 26 5 34 -5 3 -11 -3 -14 -14z"/>
<path d="M5395 5387 c-9 -20 -18 -48 -19 -62 0 -14 -4 -25 -8 -25 -5 0 -8 -7
-8 -15 0 -31 16 -13 42 46 18 41 25 67 19 77 -7 12 -12 7 -26 -21z"/>
<path d="M5842 5395 c0 -16 2 -22 5 -12 2 9 2 23 0 30 -3 6 -5 -1 -5 -18z"/>
<path d="M4752 5378 c-18 -18 -14 -27 8 -21 21 6 26 18 12 27 -5 3 -14 0 -20
-6z"/>
<path d="M4935 5380 c3 -5 -1 -10 -9 -10 -8 0 -17 -4 -20 -9 -8 -12 3 -41 15
-41 6 0 5 10 -2 22 -10 18 -9 20 5 15 9 -4 16 -5 16 -3 0 3 3 11 6 20 3 9 1
16 -6 16 -6 0 -8 -4 -5 -10z"/>
<path d="M5237 5374 c-11 -11 -8 -26 3 -19 6 3 10 1 10 -4 0 -6 -4 -11 -10
-11 -5 0 -10 -4 -10 -10 0 -16 17 -12 24 6 7 18 -7 48 -17 38z"/>
<path d="M5463 5362 c-3 -12 -9 -20 -12 -17 -4 2 -8 -1 -9 -8 -1 -20 -10 -56
-23 -92 -7 -19 -10 -38 -6 -41 10 -10 15 -3 21 28 2 14 10 37 17 50 7 12 14
30 15 38 0 8 4 23 9 33 4 10 4 21 1 24 -4 4 -9 -3 -13 -15z"/>
<path d="M5575 5369 c-11 -17 1 -21 15 -4 8 9 8 15 2 15 -6 0 -14 -5 -17 -11z"/>
<path d="M4431 5354 c0 -11 3 -14 6 -6 3 7 2 16 -1 19 -3 4 -6 -2 -5 -13z"/>
<path d="M5520 5335 c0 -8 -4 -15 -9 -15 -5 0 -12 -17 -16 -37 -5 -21 -9 -43
-11 -49 -1 -8 5 -8 21 0 14 6 19 13 13 17 -8 5 -6 18 5 42 19 40 21 57 7 57
-5 0 -10 -7 -10 -15z"/>
<path d="M5000 5324 c0 -8 5 -12 10 -9 6 3 10 10 10 16 0 5 -4 9 -10 9 -5 0
-10 -7 -10 -16z"/>
<path d="M5082 5333 c-7 -3 -17 -13 -22 -23 -8 -14 -6 -18 6 -16 9 1 21 10 26
20 11 20 9 25 -10 19z"/>
<path d="M5828 5305 c2 -14 6 -25 8 -25 2 0 4 11 4 25 0 14 -4 25 -9 25 -4 0
-6 -11 -3 -25z"/>
<path d="M4975 5310 c-3 -5 -1 -10 4 -10 6 0 11 5 11 10 0 6 -2 10 -4 10 -3 0
-8 -4 -11 -10z"/>
<path d="M5293 5308 c-12 -20 -15 -58 -5 -58 6 0 12 8 15 18 2 9 8 25 12 35 8
20 -10 24 -22 5z"/>
<path d="M5214 5294 c3 -9 6 -19 6 -22 0 -9 20 21 20 31 0 4 -7 7 -16 7 -11 0
-14 -5 -10 -16z"/>
<path d="M5569 5300 c-1 -5 -2 -16 -3 -22 -1 -7 -5 -16 -9 -19 -12 -9 -27 -81
-21 -101 7 -24 23 -23 17 0 -2 10 3 38 12 62 25 67 29 90 16 90 -6 0 -12 -4
-12 -10z"/>
<path d="M5631 5303 c2 -13 -25 -73 -32 -73 -4 0 -5 -10 -1 -22 4 -16 2 -20
-11 -15 -13 5 -14 1 -6 -25 6 -21 5 -36 -2 -45 -9 -10 -8 -13 5 -13 9 0 16 8
16 18 1 14 5 12 24 -10 l24 -27 26 60 c33 77 33 98 -3 132 -29 27 -42 34 -40
20z"/>
<path d="M5007 5256 c-4 -10 -1 -13 8 -9 8 3 12 9 9 14 -7 12 -11 11 -17 -5z"/>
<path d="M5347 5241 c-3 -12 -1 -24 4 -27 13 -8 24 25 12 37 -7 7 -12 3 -16
-10z"/>
<path d="M5200 5230 c0 -5 5 -10 11 -10 5 0 7 5 4 10 -3 6 -8 10 -11 10 -2 0
-4 -4 -4 -10z"/>
<path d="M5271 5194 c0 -11 3 -14 6 -6 3 7 2 16 -1 19 -3 4 -6 -2 -5 -13z"/>
<path d="M5724 5195 c-3 -8 -4 -20 -2 -27 3 -7 7 -1 10 15 6 29 1 36 -8 12z"/>
<path d="M5466 5191 c-3 -5 1 -11 9 -15 15 -6 29 7 18 18 -9 9 -21 8 -27 -3z"/>
<path d="M5399 5188 c-6 -11 -5 -76 1 -73 11 7 18 75 8 75 -4 0 -9 -1 -9 -2z"/>
<path d="M5767 5163 c-14 -50 -17 -73 -9 -73 5 0 12 19 15 42 6 45 2 63 -6 31z"/>
<path d="M5255 5160 c3 -5 8 -10 11 -10 2 0 4 5 4 10 0 6 -5 10 -11 10 -5 0
-7 -4 -4 -10z"/>
<path d="M5455 5160 c-9 -15 -14 -80 -6 -80 8 0 31 59 31 78 0 15 -17 16 -25
2z"/>
<path d="M5321 5142 c-7 -13 -11 -26 -8 -28 8 -8 29 25 25 38 -3 8 -9 4 -17
-10z"/>
<path d="M5707 5143 c-11 -10 -8 -43 3 -43 6 0 10 11 10 25 0 26 -2 29 -13 18z"/>
<path d="M5512 5105 c3 -13 1 -26 -4 -27 -8 -3 -20 -58 -12 -58 2 0 8 9 14 19
15 29 21 91 8 91 -6 0 -8 -11 -6 -25z"/>
<path d="M5791 5084 c0 -11 3 -14 6 -6 3 7 2 16 -1 19 -3 4 -6 -2 -5 -13z"/>
<path d="M5690 5070 c0 -11 -4 -20 -10 -20 -5 0 -7 -7 -3 -16 7 -19 18 -8 27
29 4 16 2 27 -4 27 -5 0 -10 -9 -10 -20z"/>
<path d="M5563 5065 c0 -8 4 -15 9 -15 4 0 8 7 8 15 0 8 -4 15 -8 15 -5 0 -9
-7 -9 -15z"/>
<path d="M5623 5060 c-1 -11 2 -18 8 -15 11 7 12 35 1 35 -4 0 -8 -9 -9 -20z"/>
<path d="M5745 5070 c-8 -13 -15 -74 -7 -66 3 4 7 13 8 20 1 7 5 23 9 35 7 22
1 29 -10 11z"/>
<path d="M5613 5023 c4 -3 2 -12 -4 -20 -15 -18 -1 -17 17 1 18 19 18 26 -3
26 -9 0 -13 -3 -10 -7z"/>
<path d="M5543 4998 c0 -7 -4 -25 -8 -40 -5 -18 -3 -28 4 -28 6 0 11 8 11 18
0 9 3 27 6 40 4 12 2 22 -3 22 -5 0 -10 -6 -10 -12z"/>
<path d="M5656 4978 c-12 -40 -17 -78 -11 -78 8 0 35 65 35 85 0 23 -17 18
-24 -7z"/>
<path d="M5710 4981 c0 -6 5 -13 10 -16 6 -3 10 1 10 9 0 9 -4 16 -10 16 -5 0
-10 -4 -10 -9z"/>
<path d="M5590 4956 c0 -8 -3 -23 -6 -33 -3 -10 2 -7 10 7 18 30 20 40 6 40
-5 0 -10 -6 -10 -14z"/>
<path d="M5755 4930 c-4 -12 -5 -24 -2 -27 3 -2 8 5 12 17 4 12 5 24 2 27 -3
2 -8 -5 -12 -17z"/>
<path d="M4645 4290 c3 -5 8 -10 11 -10 2 0 4 5 4 10 0 6 -5 10 -11 10 -5 0
-7 -4 -4 -10z"/>
<path d="M710 500 c0 -5 5 -10 10 -10 6 0 10 5 10 10 0 6 -4 10 -10 10 -5 0
-10 -4 -10 -10z"/>
<path d="M2625 492 c-29 -10 -27 -58 5 -82 49 -38 76 -15 68 56 -2 23 -8 29
-28 31 -14 1 -34 -2 -45 -5z"/>
<path d="M3489 495 c-5 -19 -9 -76 -13 -182 -6 -141 -1 -153 67 -153 37 0 44
4 55 29 7 15 10 34 8 42 -2 8 -7 67 -10 132 -3 65 -8 123 -11 128 -6 9 -94 13
-96 4z"/>
<path d="M2149 488 c-10 -20 -26 -284 -20 -341 3 -37 4 -38 34 -31 48 10 56
29 57 134 1 52 1 104 2 115 1 52 -6 101 -15 113 -8 10 -54 18 -58 10z"/>
<path d="M700 405 c0 -5 -3 -46 -5 -90 -3 -73 -1 -82 20 -105 37 -39 36 -65
-1 -109 -30 -36 -55 -39 -106 -11 -43 23 -60 19 -79 -18 -7 -15 -22 -37 -33
-49 l-19 -23 186 0 187 0 0 89 c0 93 -1 96 -52 138 -34 28 -62 73 -77 123 -7
25 -15 50 -16 55 -2 7 -4 7 -5 0z"/>
<path d="M1636 389 c-24 -29 -20 -46 15 -58 27 -9 30 -9 25 6 -4 9 -1 20 6 25
10 6 8 8 -4 8 -20 0 -24 16 -6 22 8 3 7 6 -4 10 -8 4 -22 -2 -32 -13z"/>
<path d="M1635 301 c-3 -5 -1 -12 5 -16 5 -3 10 1 10 9 0 18 -6 21 -15 7z"/>
<path d="M1668 238 c-10 -12 -18 -17 -18 -10 0 7 -7 5 -20 -5 -11 -10 -20 -23
-20 -31 0 -7 -7 -15 -15 -19 -19 -7 -55 -74 -55 -103 0 -13 10 -24 26 -30 36
-14 181 -13 190 2 4 7 3 8 -4 4 -7 -4 -12 -2 -12 4 0 6 -9 23 -19 38 -21 29
-44 133 -35 157 8 21 2 18 -18 -7z"/>
<path d="M2723 160 c-15 -13 -23 -16 -26 -7 -3 8 -11 5 -24 -10 -10 -12 -31
-25 -45 -28 -28 -7 -58 -56 -58 -92 0 -17 8 -20 65 -22 60 -2 65 0 69 21 3 13
5 38 3 57 -3 45 17 50 37 10 13 -26 14 -35 3 -47 -9 -13 -9 -14 1 -8 8 5 12 0
12 -13 0 -12 5 -21 11 -21 12 0 11 124 -2 158 -10 27 -19 28 -46 2z"/>
<path d="M277 34 c3 -10 2 -15 -3 -12 -5 4 -18 0 -29 -8 -17 -13 -12 -14 50
-14 l69 0 -21 20 c-12 10 -33 22 -47 26 -22 5 -25 4 -19 -12z"/>
<path d="M2521 27 c0 -10 -5 -16 -9 -13 -4 2 -14 1 -22 -5 -10 -6 -1 -8 30 -8
25 1 37 3 28 6 -9 2 -19 12 -21 21 -4 15 -5 15 -6 -1z"/>
<path d="M3433 3 c9 -2 25 -2 35 0 9 3 1 5 -18 5 -19 0 -27 -2 -17 -5z"/>
<path d="M3498 3 c7 -3 16 -2 19 1 4 3 -2 6 -13 5 -11 0 -14 -3 -6 -6z"/>
</g>
</svg>
